<svg xmlns="http://www.w3.org/2000/svg" data-name="Layer 1" viewBox="0 0 512 640" x="0px" y="0px"><title>N_P_039Artboard 27</title><path d="M466.61,450.34l-64-217.07a4.39,4.39,0,0,0-4.22-3.16h-61.8c14.43-41.38,22.15-83.52,10-112.64C315.09,42,237.07,56.82,232,57.88c-9.18,1.24-34.94,12-53.45,36.45-16.31,21.52-22.31,47.32-17.84,76.67,2.77,18.17,9.8,38.55,18.92,59.11h-66.1a4.39,4.39,0,0,0-4.22,3.16l-64,217.07A4.39,4.39,0,0,0,49.61,456H462.39a4.39,4.39,0,0,0,4.22-5.64ZM395.13,238.91l45.3,153.71c.12,1.27.62,9.43-5.13,14.89s-16.25,6.86-30.62,4.25c-10.34-1.88-17.09-5.82-20.62-12.05-7.61-13.4.75-35.76,6.86-52.1,1.14-3,2.21-5.9,3.11-8.49,5-14.51,2.63-29.43-6.19-38.93-9.09-9.79-23.72-12.64-41.19-8-7,1.85-12,1.22-15.24-2-8-8-4.73-30.34-2.54-39.41q2.37-5.9,4.6-11.87ZM185.6,99.64c17.1-22.57,41.31-32.26,47.73-33l.45-.08A95.55,95.55,0,0,1,253,64.76c24.28,0,65.3,7.77,85.48,56.11,27,64.69-55.15,206-73.13,235.56-17.12-23.58-86-121.74-95.91-186.75C165.36,142.76,170.79,119.2,185.6,99.64ZM314.69,447.18c.51-.56,1-1.13,1.53-1.74a4.4,4.4,0,0,0-6.76-5.64,47.52,47.52,0,0,1-7.69,7.38H55.49l33.88-115Q90.83,334,92.62,336a4.4,4.4,0,0,0,6.57-5.85c-3.08-3.47-5.44-6.42-6.8-8.17l24.48-83h66.82c29.52,62.73,75.81,124.51,78.47,128a4.4,4.4,0,0,0,3.52,1.75h.18a4.39,4.39,0,0,0,3.53-2,807.24,807.24,0,0,0,48.31-89.8c.62,7.47,2.66,14.74,7.5,19.56,5.52,5.51,13.48,6.94,23.69,4.25,14.18-3.74,25.72-1.78,32.5,5.51,6.6,7.11,8.26,18.63,4.31,30.06-.87,2.54-1.91,5.33-3,8.29-6.72,18-15.92,42.55-6.28,59.52,4.84,8.52,13.83,14,26.71,16.37a80.39,80.39,0,0,0,14.3,1.41c10.41,0,18.47-2.68,24-8a23.83,23.83,0,0,0,3.82-4.76l11.24,38.14Z"/><path d="M288.73,379.91h-.05A125.5,125.5,0,0,0,269.91,382c-2.86.47-5.62.92-8.23,1.23a4.4,4.4,0,0,0,.52,8.77,4.53,4.53,0,0,0,.52,0c2.73-.33,5.62-.8,8.6-1.28a118.45,118.45,0,0,1,17.46-2,4.41,4.41,0,0,0,0-8.81Z"/><path d="M316.19,390.53a4.4,4.4,0,1,0-6.52,5.91,31.07,31.07,0,0,1,5.19,8.23A33.66,33.66,0,0,1,317.94,418a4.4,4.4,0,0,0,4.4,4.36h0a4.41,4.41,0,0,0,4.36-4.44,42.49,42.49,0,0,0-3.83-16.81A39.6,39.6,0,0,0,316.19,390.53Z"/><path d="M232.68,371.65c-3.5-3.37-7.46-7.19-12.73-11.42a4.4,4.4,0,0,0-5.51,6.86c5,4,8.77,7.66,12.13,10.9,2.77,2.67,5.17,5,7.71,7a4.41,4.41,0,0,0,6.19-.69,4.41,4.41,0,0,0-.7-6.19C237.55,376.35,235.29,374.17,232.68,371.65Z"/><path d="M139.92,358c-6.48-.7-13.84-4.11-21.89-10.14a4.4,4.4,0,1,0-5.28,7.05c9.33,7,18.15,11,26.21,11.85l.48,0a4.4,4.4,0,0,0,.48-8.78Z"/><path d="M192.38,351.12h0c-8.2.11-16.61,1.73-25.51,3.45l-1.73.33a4.4,4.4,0,0,0,.83,8.73,4.78,4.78,0,0,0,.84-.08l1.73-.33c8.5-1.65,16.53-3.2,23.95-3.3a4.4,4.4,0,0,0-.06-8.8Z"/><path d="M300.58,144.2A44.58,44.58,0,1,0,256,188.77,44.63,44.63,0,0,0,300.58,144.2ZM256,180a35.78,35.78,0,1,1,35.77-35.77A35.81,35.81,0,0,1,256,180Z"/><text x="0" y="527" fill="#000000" font-size="5px" font-weight="bold" font-family="'Helvetica Neue', Helvetica, Arial-Unicode, Arial, Sans-serif">Created by Teewara soontorn</text><text x="0" y="532" fill="#000000" font-size="5px" font-weight="bold" font-family="'Helvetica Neue', Helvetica, Arial-Unicode, Arial, Sans-serif">from the Noun Project</text></svg>