<svg xmlns:dc="http://purl.org/dc/elements/1.1/" xmlns:cc="http://creativecommons.org/ns#" xmlns:rdf="http://www.w3.org/1999/02/22-rdf-syntax-ns#" xmlns:svg="http://www.w3.org/2000/svg" xmlns="http://www.w3.org/2000/svg" xmlns:sodipodi="http://sodipodi.sourceforge.net/DTD/sodipodi-0.dtd" xmlns:inkscape="http://www.inkscape.org/namespaces/inkscape" version="1.1" x="0px" y="0px" viewBox="0 0 100 125"><g transform="translate(0,-952.36218)"><path style="text-indent:0;text-transform:none;direction:ltr;block-progression:tb;baseline-shift:baseline;color:#000000;enable-background:accumulate;" d="m 6.9999985,977.36217 0,3 0,11.00003 0,3 3,0 c 4.4536995,0 7.9999995,3.5463 7.9999995,8 0,4.4539 -3.5462,8 -7.9999995,8 l -3,0 0,3 0,11 0,3 3,0 80.0000005,0 3.000002,0 0,-3 0,-11 0,-3 -3.000002,0 c -4.4538,0 -8,-3.5461 -8,-8 0,-4.4537 3.5463,-8 8,-8 l 3.000002,0 0,-3 0,-11.00003 0,-3 -3.000002,0 -80.0000005,0 -3,0 z m 5.9999995,6 49,0 0,38.00003 -49,0 0,-5.375 c 6.2656,-1.3865 11,-6.9598 11,-13.625 0,-6.6652 -4.7344,-12.2697 -11,-13.6563 l 0,-5.34373 z m 55.000001,0 19,0 0,5.34373 c -6.265601,1.3866 -11,6.9911 -11,13.6563 0,6.6652 4.734399,12.2385 11,13.625 l 0,5.375 -19,0 0,-38.00003 z m -25.000001,5 -3.75,9.31253 -10.25,0.625 7.9062,6.375 -2.5624,9.6875 8.6562,-5.375 8.6562,5.375 -2.5624,-9.6875 7.9062,-6.375 -10.25,-0.625 -3.75,-9.31253 z" fill="#000000" fill-opacity="1" stroke="none" marker="none" visibility="visible" display="inline" overflow="visible"/></g><text x="0" y="115" fill="#000000" font-size="5px" font-weight="bold" font-family="'Helvetica Neue', Helvetica, Arial-Unicode, Arial, Sans-serif">Created by Three Six Five</text><text x="0" y="120" fill="#000000" font-size="5px" font-weight="bold" font-family="'Helvetica Neue', Helvetica, Arial-Unicode, Arial, Sans-serif">from the Noun Project</text></svg>