<svg xmlns:dc="http://purl.org/dc/elements/1.1/" xmlns:cc="http://creativecommons.org/ns#" xmlns:rdf="http://www.w3.org/1999/02/22-rdf-syntax-ns#" xmlns:svg="http://www.w3.org/2000/svg" xmlns="http://www.w3.org/2000/svg" xmlns:sodipodi="http://sodipodi.sourceforge.net/DTD/sodipodi-0.dtd" xmlns:inkscape="http://www.inkscape.org/namespaces/inkscape" version="1.1" width="231" height="135"><rect id="backgroundrect" width="100%" height="100%" x="0" y="0" fill="none" stroke="none" class="" style=""/><g class="currentLayer" style=""><title>Layer 1</title><path style="text-indent:0;text-transform:none;direction:ltr;block-progression:tb;baseline-shift:baseline;color:#000000;enable-background:accumulate;" d="m-9.558823442937925,2.941175894108497 l0,8.073526382446289 l0,29.603010804233552 l0,8.073526382446289 l8.073526382446289,0 c11.98568680424595,0 21.529402340935707,9.543715536689758 21.529402340935707,21.529403686523438 c0,11.986226384925843 -9.543446419143676,21.529403686523438 -21.529402340935707,21.529403686523438 l-8.073526382446289,0 l0,8.073526382446289 l0,29.602930068969727 l0,8.073526382446289 l8.073526382446289,0 l215.2940382108221,0 l8.07353176479721,0 l0,-8.073526382446289 l0,-29.602930068969727 l0,-8.073526382446289 l-8.07353176479721,0 c-11.985957267379762,0 -21.529403686523438,-9.543177301597595 -21.529403686523438,-21.529403686523438 c0,-11.985688149833678 9.543715536689758,-21.529403686523438 21.529403686523438,-21.529403686523438 l8.07353176479721,0 l0,-8.073526382446289 l0,-29.603010804233552 l0,-8.073526382446289 l-8.07353176479721,0 l-215.2940382108221,0 l-8.073526382446289,0 zm16.147051419304848,16.147052764892578 l131.86759757995605,0 l0,102.26474824625016 l-131.86759757995605,0 l0,-14.465068101882935 c16.861828967285156,-3.7313147764205943 29.602930068969727,-18.730042972183227 29.602930068969727,-36.66726565361023 c0,-17.937222681427002 -12.74110110168457,-33.01991555156708 -29.602930068969727,-36.75149944553375 l0,-14.380915045223237 zm148.0146530360241,0 l51.132333755493164,0 l0,14.380915045223237 c-16.861831658460616,3.731583893966675 -29.602930068969727,18.81427676410675 -29.602930068969727,36.75149944553375 c0,17.937222681427002 12.741098410509109,32.93595087718964 29.602930068969727,36.66726565361023 l0,14.465068101882935 l-51.132333755493164,0 l0,-102.26474824625016 zm-67.27938921156121,13.455877304077148 l-10.091907978057861,25.061652214107514 l-27.584548473358154,1.6819846630096444 l21.27697142829895,17.156243562698364 l-6.895868000793458,26.070762276649475 l23.295353023910522,-14.465068101882935 l23.295353023910522,14.465068101882935 l-6.895868000793458,-26.070762276649475 l21.27697142829895,-17.156243562698364 l-27.584548473358154,-1.6819846630096444 l-10.091907978057861,-25.061652214107514 z" fill="#f68d03" fill-opacity="1" stroke="none" marker="none" visibility="visible" display="inline" overflow="visible" id="svg_2" class="selected"/><polyline fill="#000000" stroke-dashoffset="" fill-rule="nonzero" marker-start="" marker-mid="" marker-end="" id="svg_5" points="67.70589351654053,71.91175746917725 68.44119167327881,71.1764669418335 71.38236904144287,68.23528957366943 73.58824825286865,66.02940654754639 77.264723777771,61.61764430999756 80.94119167327881,57.94117259979248 82.41178035736084,56.47058391571045 85.3529577255249,54.99999523162842 86.82354640960693,53.52940654754639 87.55883693695068,53.52940654754639 88.29413509368896,52.79411220550537 89.02942562103271,52.79411220550537 89.764723777771,52.05882167816162 90.50001430511475,52.05882167816162 " style="color: rgb(246, 141, 3);" class=""/><polyline fill="#000000" stroke-dashoffset="" fill-rule="nonzero" marker-start="" marker-mid="" marker-end="" id="svg_6" points="72.11765956878662,44.705878257751465 72.11765956878662,47.64705562591553 75.79413509368896,54.2647008895874 77.264723777771,57.94117259979248 80.94119167327881,65.29411220550537 83.88236904144287,69.70587825775146 86.08824825286865,71.1764669418335 88.29413509368896,74.85293483734131 91.23531246185303,77.79411220550537 91.97060298919678,79.99999904632568 94.17648220062256,80.73528957366943 95.64707088470459,82.94117641448975 96.38236904144287,83.6764669418335 97.8529577255249,84.41175746917725 " style="color: rgb(246, 141, 3);" class=""/><rect fill="#ffffff" stroke-dashoffset="" fill-rule="nonzero" id="svg_7" x="54" y="36" width="74" height="73" style="color: rgb(246, 141, 3);" class="" fill-opacity="1"/><rect fill="#000000" stroke-dashoffset="" fill-rule="nonzero" id="svg_9" x="45" y="33" width="8" height="3" style="color: rgb(246, 141, 3);"/><rect fill="#ffffff" stroke-dashoffset="" fill-rule="nonzero" id="svg_12" x="41" y="28" width="56" height="44" style="color: rgb(246, 141, 3);" class="" fill-opacity="1"/><rect fill="#ffffff" stroke-dashoffset="" fill-rule="nonzero" id="svg_14" x="99" y="69" width="1" height="0" style="color: rgb(246, 141, 3);"/></g></svg>