<svg xmlns="http://www.w3.org/2000/svg" viewBox="0 0 32 40" x="0px" y="0px"><title>12 location</title><g data-name="12 location"><path d="M16,2A11,11,0,0,0,5,13c0,9.41,10,16.52,10.43,16.82a1,1,0,0,0,1.14,0C17,29.52,27,22.41,27,13A11,11,0,0,0,16,2Zm0,25.75C13.93,26.13,7,20.15,7,13a9,9,0,0,1,18,0C25,20.15,18.07,26.13,16,27.75ZM16,8a5,5,0,1,0,5,5A5,5,0,0,0,16,8Zm0,8a3,3,0,1,1,3-3A3,3,0,0,1,16,16Z"/></g><text x="0" y="47" fill="#000000" font-size="5px" font-weight="bold" font-family="'Helvetica Neue', Helvetica, Arial-Unicode, Arial, Sans-serif">Created by ALga_design</text><text x="0" y="52" fill="#000000" font-size="5px" font-weight="bold" font-family="'Helvetica Neue', Helvetica, Arial-Unicode, Arial, Sans-serif">from the Noun Project</text></svg>