<svg id="SvgjsSvg1001" width="288" height="288" xmlns="http://www.w3.org/2000/svg" version="1.1" xmlns:xlink="http://www.w3.org/1999/xlink" xmlns:svgjs="http://svgjs.com/svgjs"><defs id="SvgjsDefs1002"></defs><g id="SvgjsG1008" transform="matrix(1,0,0,1,0,0)"><svg xmlns="http://www.w3.org/2000/svg" viewBox="0 0 32 40" width="288" height="288"><path d="M16,2A11,11,0,0,0,5,13c0,9.41,10,16.52,10.43,16.82a1,1,0,0,0,1.14,0C17,29.52,27,22.41,27,13A11,11,0,0,0,16,2Zm0,25.75C13.93,26.13,7,20.15,7,13a9,9,0,0,1,18,0C25,20.15,18.07,26.13,16,27.75ZM16,8a5,5,0,1,0,5,5A5,5,0,0,0,16,8Zm0,8a3,3,0,1,1,3-3A3,3,0,0,1,16,16Z" data-name="12 location" fill="#ff9565" class="color000 svgShape"></path><text y="47" font-family="'Helvetica Neue', Helvetica, Arial-Unicode, Arial, Sans-serif" font-size="5" font-weight="bold" svgjs:data="{&quot;leading&quot;:&quot;1.3&quot;}">Created by ALga_design</text><text y="52" font-family="'Helvetica Neue', Helvetica, Arial-Unicode, Arial, Sans-serif" font-size="5" font-weight="bold" svgjs:data="{&quot;leading&quot;:&quot;1.3&quot;}">from the Noun Project</text></svg></g></svg>