<svg xmlns="http://www.w3.org/2000/svg" xmlns:xlink="http://www.w3.org/1999/xlink" version="1.1" x="0px" y="0px" viewBox="0 0 25 31.25" style="enable-background:new 0 0 25 25;" xml:space="preserve"><path d="M12.5,23C6.71,23,2,18.29,2,12.5S6.71,2,12.5,2S23,6.71,23,12.5S18.29,23,12.5,23z M12.5,3C7.262,3,3,7.262,3,12.5  c0,5.238,4.262,9.5,9.5,9.5c5.238,0,9.5-4.262,9.5-9.5C22,7.262,17.738,3,12.5,3z M15.5,7h-6C8.121,7,7,8.121,7,9.5V14  c0,0.275,0.224,0.5,0.5,0.5S8,14.275,8,14v-3h9v4.5c0,0.827-0.673,1.5-1.5,1.5H9.984l1.399-1.68  c0.177-0.213,0.148-0.527-0.063-0.704c-0.211-0.177-0.527-0.148-0.704,0.063l-2.083,2.5c-0.155,0.186-0.155,0.454,0,0.641l2.083,2.5  c0.099,0.117,0.241,0.18,0.384,0.18c0.113,0,0.227-0.038,0.32-0.116c0.212-0.177,0.24-0.491,0.063-0.704L9.984,18H15.5  c1.379,0,2.5-1.121,2.5-2.5v-6C18,8.121,16.879,7,15.5,7z M8,10V9.5C8,8.673,8.673,8,9.5,8h6C16.327,8,17,8.673,17,9.5V10H8z"/><text x="0" y="40" fill="#000000" font-size="5px" font-weight="bold" font-family="'Helvetica Neue', Helvetica, Arial-Unicode, Arial, Sans-serif">Created by Diky Setiawan</text><text x="0" y="45" fill="#000000" font-size="5px" font-weight="bold" font-family="'Helvetica Neue', Helvetica, Arial-Unicode, Arial, Sans-serif">from the Noun Project</text></svg>