<svg xmlns="http://www.w3.org/2000/svg" xmlns:xlink="http://www.w3.org/1999/xlink" version="1.1" style="" xml:space="preserve" width="71" height="71"><rect id="backgroundrect" width="100%" height="100%" x="0" y="0" fill="none" stroke="none" class="" style=""/><g class="currentLayer" style=""><title>Layer 1</title><path d="M35.65151274204254,71.30302548408508 C15.992250001430511,71.30302548408508 0,55.31077548265457 0,35.65151274204254 S15.992250001430511,0 35.65151274204254,0 S71.30302548408508,15.992250001430511 71.30302548408508,35.65151274204254 S55.31077548265457,71.30302548408508 35.65151274204254,71.30302548408508 zM35.65151274204254,3.3953821659088135 C17.866500957012178,3.3953821659088135 3.3953821659088135,17.866500957012178 3.3953821659088135,35.65151274204254 c0,17.785011785030367 14.471118791103365,32.25613057613373 32.25613057613373,32.25613057613373 c17.785011785030367,0 32.25613057613373,-14.471118791103365 32.25613057613373,-32.25613057613373 C67.90764331817627,17.866500957012178 53.436524527072905,3.3953821659088135 35.65151274204254,3.3953821659088135 zM45.83765923976898,16.976910829544067 h-20.37229299545288 C20.78313423752785,16.976910829544067 16.976910829544067,20.78313423752785 16.976910829544067,25.4653662443161 V40.74458599090576 c0,0.9337300956249238 0.7605656051635747,1.697691082954407 1.697691082954407,1.697691082954407 S20.37229299545288,41.678316086530685 20.37229299545288,40.74458599090576 v-10.18614649772644 h30.55843949317932 v15.27921974658966 c0,2.80798105120659 -2.2850921976566334,5.09307324886322 -5.09307324886322,5.09307324886322 H27.108731212615968 l4.75013965010643,-5.704242038726809 c0.6009826433658604,-0.7232164013385777 0.5025165605545046,-1.7893664014339445 -0.21390907645225543,-2.3903490447998057 c-0.71642563700676,-0.6009826433658604 -1.7893664014339445,-0.5025165605545046 -2.3903490447998057,0.21390907645225543 l-7.072581051588059,8.488455414772034 c-0.5262842357158664,0.6315410828590396 -0.5262842357158664,1.5415035033226014 0,2.176439968347551 l7.072581051588059,8.488455414772034 c0.3361428344249729,0.39725971341133126 0.8182871019840242,0.6111687898635867 1.3038267517089852,0.6111687898635867 c0.38367818474769616,0 0.7707517516613009,-0.1290245223045349 1.086522293090821,-0.39386433124542264 c0.7198210191726687,-0.6009826433658604 0.8148917198181157,-1.667132643461228 0.21390907645225543,-2.3903490447998057 L27.108731212615968,54.326114654541016 H45.83765923976898 c4.6822320067882535,0 8.488455414772034,-3.8062234079837802 8.488455414772034,-8.488455414772034 v-20.37229299545288 C54.326114654541016,20.78313423752785 50.51989124655724,16.976910829544067 45.83765923976898,16.976910829544067 zM20.37229299545288,27.163057327270508 V25.4653662443161 C20.37229299545288,22.657385193109512 22.657385193109512,20.37229299545288 25.4653662443161,20.37229299545288 h20.37229299545288 C48.64564029097558,20.37229299545288 50.9307324886322,22.657385193109512 50.9307324886322,25.4653662443161 V27.163057327270508 H20.37229299545288 z" id="svg_1" class="" fill-opacity="1" fill="#f01cec"/></g></svg>