<svg xmlns:dc="http://purl.org/dc/elements/1.1/" xmlns:cc="http://creativecommons.org/ns#" xmlns:rdf="http://www.w3.org/1999/02/22-rdf-syntax-ns#" xmlns:svg="http://www.w3.org/2000/svg" xmlns="http://www.w3.org/2000/svg" xmlns:sodipodi="http://sodipodi.sourceforge.net/DTD/sodipodi-0.dtd" xmlns:inkscape="http://www.inkscape.org/namespaces/inkscape" version="1.1" width="178" height="91"><rect id="backgroundrect" width="100%" height="100%" x="0" y="0" fill="none" stroke="none" class="" style=""/><g class="currentLayer" style=""><title>Layer 1</title><g id="svg_1" class="selected" fill-opacity="1" fill="#f68d03"><path style="text-indent:0;text-transform:none;direction:ltr;block-progression:tb;baseline-shift:baseline;color:#000000;enable-background:accumulate;" d="m7.152557373046875e-7,0.00000763481123465583 l0,2.172968626022339 l0,21.72968626022339 l0,2.172968626022339 l2.172968626022339,0 c10.8263815854311,0 19.55671763420105,8.730466426887512 19.55671763420105,19.55676109357357 c0,10.826816179156303 -8.730118751907348,19.55671763420105 -19.55671763420105,19.55671763420105 l-2.172968626022339,0 l0,2.172968626022339 l0,21.72968626022339 l0,2.172968626022339 l2.172968626022339,0 l173.8374900817871,0 l2.172968626022339,0 l0,-2.172968626022339 l0,-21.72968626022339 l0,-2.172968626022339 l-2.172968626022339,0 c-10.826598882293702,0 -19.55671763420105,-8.729901455044747 -19.55671763420105,-19.55671763420105 c0,-10.826272936999796 8.73033604876995,-19.55676109357357 19.55671763420105,-19.55676109357357 l2.172968626022339,0 l0,-2.172968626022339 l0,-21.72968626022339 l0,-2.172968626022339 l-2.172968626022339,0 l-173.8374900817871,0 l-2.172968626022339,0 zm4.345937252044678,4.345937252044678 l121.68624305725098,0 l0,10.864843130111694 l4.345937252044678,0 l0,-10.864843130111694 l43.45937252044678,0 l0,17.7911806255579 c-12.112127121448516,1.1511953186941148 -21.72968626022339,11.088115656435491 -21.72968626022339,23.49526672823906 c0,12.403956807923318 9.622556966614724,22.271407338690757 21.72968626022339,23.42742664773464 l0,17.858977246689797 l-43.45937252044678,0 l0,-10.864843130111694 l-4.345937252044678,0 l0,10.864843130111694 l-121.68624305725098,0 l0,-17.858977246689797 c12.107129293608665,-1.1560193090438844 21.72968626022339,-11.023469839811327 21.72968626022339,-23.42742664773464 c0,-12.40715107180357 -9.617559138774872,-22.344049679858685 -21.72968626022339,-23.49526672823906 l0,-17.7911806255579 zm121.68624305725098,19.55671763420105 l0,17.38379246755123 l4.345937252044678,0 l0,-17.38379246755123 l-4.345937252044678,0 zm0,26.075666971640587 l0,17.38374900817871 l4.345937252044678,0 l0,-17.38374900817871 l-4.345937252044678,0 z" fill="#f68d03" fill-opacity="1" stroke="none" marker="none" visibility="visible" display="inline" overflow="visible" id="svg_2"/></g></g></svg>