<svg xmlns:dc="http://purl.org/dc/elements/1.1/" xmlns:cc="http://creativecommons.org/ns#" xmlns:rdf="http://www.w3.org/1999/02/22-rdf-syntax-ns#" xmlns:svg="http://www.w3.org/2000/svg" xmlns="http://www.w3.org/2000/svg" xmlns:sodipodi="http://sodipodi.sourceforge.net/DTD/sodipodi-0.dtd" xmlns:inkscape="http://www.inkscape.org/namespaces/inkscape" version="1.1" x="0px" y="0px" viewBox="0 0 100 125"><g transform="translate(0,-952.36218)"><path style="text-indent:0;text-transform:none;direction:ltr;block-progression:tb;baseline-shift:baseline;color:#000000;enable-background:accumulate;" d="m 9,981.36218 0,1 0,10 0,1 1,0 c 4.9823,0 9,4.01776 9,9.00002 0,4.9825 -4.0176,9 -9,9 l -1,0 0,1 0,10 0,1 1,0 80,0 1,0 0,-1 0,-10 0,-1 -1,0 c -4.9824,0 -9,-4.0175 -9,-9 0,-4.98225 4.0177,-9.00002 9,-9.00002 l 1,0 0,-1 0,-10 0,-1 -1,0 -80,0 -1,0 z m 2,2 56,0 0,5 2,0 0,-5 20,0 0,8.1875 c -5.574,0.52978 -10,5.10275 -10,10.81252 0,5.7083 4.4283,10.2493 10,10.7813 l 0,8.2187 -20,0 0,-5 -2,0 0,5 -56,0 0,-8.2187 c 5.5717,-0.532 10,-5.073 10,-10.7813 0,-5.70977 -4.426,-10.28273 -10,-10.81252 l 0,-8.1875 z m 56,9 0,8.00002 2,0 0,-8.00002 -2,0 z m 0,12.00002 0,8 2,0 0,-8 -2,0 z" fill="#000000" fill-opacity="1" stroke="none" marker="none" visibility="visible" display="inline" overflow="visible"/></g><text x="0" y="115" fill="#000000" font-size="5px" font-weight="bold" font-family="'Helvetica Neue', Helvetica, Arial-Unicode, Arial, Sans-serif">Created by Three Six Five</text><text x="0" y="120" fill="#000000" font-size="5px" font-weight="bold" font-family="'Helvetica Neue', Helvetica, Arial-Unicode, Arial, Sans-serif">from the Noun Project</text></svg>