<svg xmlns="http://www.w3.org/2000/svg" width="128" height="128"><rect id="backgroundrect" width="100%" height="100%" x="0" y="0" fill="none" stroke="none" class="" style=""/><title>12 location</title><g class="currentLayer" style=""><title>Layer 1</title><g data-name="12 location" id="svg_1" class="" fill="#ff9565" fill-opacity="1"><path d="M64.3088252129959,1.4705882072449161 A50.338237005751026,49.91188639891227 0 0 0 13.970588207244873,51.38247460615719 c0,42.69735009216041 45.76203364159184,74.95857848273008 47.72980108818029,76.31981174815495 a4.576203364159184,4.537444218082934 0 0 0 5.21687183514147,0 C68.88502857715508,126.34105308888725 114.64706221874692,94.0798246983176 114.64706221874692,51.38247460615719 A50.338237005751026,49.91188639891227 0 0 0 64.3088252129959,1.4705882072449161 zm0,116.83918861563556 C54.836084249186385,110.95911718958612 23.12299493556324,83.82520076545018 23.12299493556324,51.38247460615719 a41.18583027743266,40.83699796274641 0 0 1 82.37166055486531,0 C105.49465549042856,83.82520076545018 73.78156617680543,110.95911718958612 64.3088252129959,118.30977682288048 zM64.3088252129959,28.695253515742518 a22.88101682079592,22.68722109041467 0 1 0 22.88101682079592,22.68722109041467 A22.88101682079592,22.68722109041467 0 0 0 64.3088252129959,28.695253515742518 zm0,36.29955374466347 a13.728610092477552,13.612332654248803 0 1 1 13.728610092477552,-13.612332654248803 A13.728610092477552,13.612332654248803 0 0 1 64.3088252129959,64.99480726040599 z" id="svg_2" fill="#ff9565" fill-opacity="1"/></g></g></svg>